<svg width="67" height="34" viewBox="0 0 67 34" fill="none" xmlns="http://www.w3.org/2000/svg">
<g clip-path="url(#clip0_4320_14934)">
<path d="M8.00142 26.26C8.00142 27.9169 7.67813 29.2707 7.01134 30.3214C6.43215 31.2939 5.59222 32.0848 4.58667 32.6046C3.74343 33.0457 2.81027 33.2876 1.85892 33.3118L0 28.7453C0.589774 28.5741 1.12557 28.254 1.55583 27.8159C1.90934 27.366 2.13295 26.8279 2.20241 26.26C2.32304 25.3356 2.37706 24.4038 2.36406 23.4716V8.27704H8.00142V26.26ZM8.12265 3.75098C8.13042 4.13623 8.05708 4.5188 7.9074 4.87386C7.75772 5.22893 7.53503 5.54854 7.25381 5.81195C6.9814 6.08554 6.65681 6.30163 6.29931 6.4474C5.94181 6.59318 5.55868 6.66568 5.17263 6.66059C4.6551 6.66998 4.14491 6.53719 3.69762 6.27668C3.26236 6.02329 2.90032 5.66126 2.64693 5.22599C2.38642 4.77871 2.25364 4.26852 2.26303 3.75098C2.25996 3.36823 2.33346 2.98873 2.4792 2.63479C2.62494 2.28086 2.83997 1.95963 3.11166 1.69001C3.37388 1.40726 3.69328 1.18355 4.04862 1.03374C4.40397 0.883941 4.78713 0.811478 5.17263 0.821171C5.56057 0.815531 5.94552 0.889752 6.30355 1.03922C6.66158 1.18869 6.98504 1.41021 7.25381 1.69001C7.53112 1.95645 7.75119 2.27662 7.90057 2.63098C8.04996 2.98534 8.12552 3.36644 8.12265 3.75098ZM49.4229 8.27704L42.1893 25.2699H38.0269L30.955 8.27704H36.9965L40.29 17.1675L43.9472 8.27704H49.4229ZM66.1936 18.2182H54.9996C55.2075 19.2366 55.7829 20.1428 56.6161 20.7641C57.4427 21.42 58.4706 21.7697 59.5257 21.7542C61.425 21.7542 63.5062 21.1884 65.8096 20.0569V23.7747C64.8554 24.2873 63.8539 24.7069 62.8192 25.0275C61.6473 25.3912 60.1521 25.5932 58.3538 25.5932C56.3938 25.5932 54.737 25.2093 53.363 24.4213C52.0424 23.6916 50.9669 22.588 50.2715 21.249C49.5668 19.8388 49.2132 18.2791 49.241 16.7028C49.213 15.1458 49.5668 13.6057 50.2715 12.2171C50.9639 10.8914 52.0418 9.8065 53.363 9.10547C54.737 8.35786 56.3938 7.97395 58.3538 7.97395C59.6517 7.97765 60.9312 8.28195 62.0918 8.863C63.3041 9.44896 64.274 10.439 65.062 11.7928C65.8501 13.1466 66.234 14.8843 66.234 17.0261V18.2182H66.1936ZM60.9199 15.248C60.9199 14.1569 60.6572 13.288 60.1521 12.6414C59.6469 11.9949 58.9195 11.6716 57.9699 11.6716C57.5396 11.6566 57.1115 11.7377 56.7165 11.909C56.3216 12.0803 55.9698 12.3374 55.6866 12.6617C55.1007 13.3284 54.8178 14.1771 54.8178 15.248H60.9199Z" fill="#333333"/>
<path d="M10.5913 16.5603C10.571 14.5113 10.7674 12.4659 11.1772 10.4582C11.3591 9.46815 12.3694 8.49828 13.3594 8.27602C14.3091 8.07396 17.0369 7.73047 20.3102 7.73047C23.5835 7.73047 26.4527 8.07396 27.4023 8.27602C28.3924 8.49828 29.3825 9.46815 29.5845 10.4582C29.7866 11.4483 30.0695 13.287 30.0695 16.5603C30.0977 18.5742 29.9149 20.5856 29.5239 22.5614C29.3421 23.5515 28.3318 24.5213 27.3417 24.7436C26.4123 24.9456 23.6037 25.2689 20.391 25.2891L14.9355 29.5323V24.986C14.2081 24.9052 13.6423 24.8042 13.2988 24.7436C12.3087 24.5213 11.3187 23.5515 11.1166 22.5614C10.9146 21.5713 10.5913 19.8336 10.5913 16.5603ZM26.6749 11.125C25.9677 10.9836 23.4622 10.6805 20.3102 10.6805C18.2274 10.6678 16.1467 10.8164 14.0868 11.125C14.0666 11.1452 14.0464 11.1452 14.0262 11.1654V11.2058C13.6702 12.968 13.5009 14.7627 13.5211 16.5603C13.5211 19.3689 13.804 20.9045 13.9858 21.834C14.006 21.8542 14.0262 21.8744 14.0464 21.8744C14.8142 22.036 17.2591 22.3189 20.2698 22.3189C22.3994 22.3281 24.5268 22.1795 26.6345 21.8744C26.6547 21.8542 26.6749 21.8542 26.6951 21.834C26.877 20.9045 27.1599 19.3689 27.1599 16.5603C27.1599 13.8124 26.9376 12.1757 26.7557 11.1654C26.6951 11.1452 26.6749 11.1452 26.6749 11.125Z" fill="#137CEC"/>
</g>
<defs>
<clipPath id="clip0_4320_14934">
<rect width="66.1936" height="32.4915" fill="white" transform="translate(0 0.820312)"/>
</clipPath>
</defs>
</svg>
